<svg width="38" height="37" viewBox="0 0 38 37" fill="none" xmlns="http://www.w3.org/2000/svg">
<path d="M18.5498 0.567383C28.4858 0.567383 36.5322 8.55222 36.5322 18.3916C36.5322 28.231 28.4858 36.2158 18.5498 36.2158C8.61385 36.2157 0.56739 28.2309 0.567383 18.3916C0.567383 8.55228 8.61385 0.567484 18.5498 0.567383Z" stroke="black" stroke-width="1.13504"/>
<path d="M21.5948 19.0246L22.0367 15.9663H19.2746V13.9817C19.2746 13.1452 19.6603 12.3293 20.8975 12.3293H22.153V9.72577C22.153 9.72577 21.0138 9.51929 19.9243 9.51929C17.6498 9.51929 16.1632 10.9842 16.1632 13.6358V15.9669H13.6348V19.0251H16.1632V26.4185H19.2746V19.0251L21.5948 19.0246Z" fill="black"/>
</svg>
