<svg width="38" height="37" viewBox="0 0 38 37" fill="none" xmlns="http://www.w3.org/2000/svg">
<path d="M18.749 0.567383C28.6851 0.567383 36.7314 8.55222 36.7314 18.3916C36.7314 28.231 28.6851 36.2158 18.749 36.2158C8.81307 36.2157 0.766609 28.2309 0.766602 18.3916C0.766602 8.55228 8.81307 0.567484 18.749 0.567383Z" stroke="black" stroke-width="1.13504"/>
<path fill-rule="evenodd" clip-rule="evenodd" d="M16.2711 14.2761H19.0401V15.6554C19.439 14.8621 20.4619 14.1493 21.9985 14.1493C24.9442 14.1493 25.6435 15.7284 25.6435 18.6256V23.9914H22.6613V19.2855C22.6613 17.6356 22.2624 16.7051 21.247 16.7051C19.8386 16.7051 19.2534 17.7079 19.2534 19.2847V23.9914H16.2711V14.2761ZM11.1574 23.8647H14.1396V14.1493H11.1574V23.8647ZM14.5668 10.9815C14.5669 11.2314 14.5173 11.4789 14.421 11.7096C14.3246 11.9402 14.1833 12.1494 14.0054 12.325C13.6449 12.6833 13.1568 12.8839 12.6485 12.8826C12.1411 12.8823 11.6542 12.6822 11.2931 12.3257C11.1158 12.1496 10.975 11.9401 10.8788 11.7095C10.7826 11.4788 10.7329 11.2314 10.7324 10.9815C10.7324 10.4767 10.9337 9.99363 11.2938 9.63725C11.6546 9.28025 12.1417 9.0801 12.6492 9.08032C13.1577 9.08032 13.6453 9.28088 14.0054 9.63725C14.3648 9.99363 14.5668 10.4767 14.5668 10.9815Z" fill="black"/>
</svg>
