<svg width="38" height="37" viewBox="0 0 38 37" fill="none" xmlns="http://www.w3.org/2000/svg">
<path d="M18.6494 0.567383C28.5855 0.567383 36.6318 8.55222 36.6318 18.3916C36.6318 28.231 28.5855 36.2158 18.6494 36.2158C8.71346 36.2157 0.666999 28.2309 0.666992 18.3916C0.666992 8.55228 8.71346 0.567484 18.6494 0.567383Z" stroke="black" stroke-width="1.13504"/>
<path d="M26.6892 14.1291C26.1013 14.3896 25.4697 14.5657 24.8057 14.6452C25.4908 14.2353 26.0034 13.5901 26.2477 12.83C25.6041 13.2123 24.8996 13.4815 24.1649 13.6257C23.6709 13.0982 23.0165 12.7485 22.3034 12.6311C21.5903 12.5136 20.8584 12.6348 20.2212 12.9759C19.5841 13.317 19.0774 13.859 18.7798 14.5176C18.4822 15.1762 18.4104 15.9146 18.5755 16.6182C17.2712 16.5527 15.9953 16.2137 14.8305 15.6232C13.6657 15.0327 12.6381 14.2039 11.8144 13.1905C11.5328 13.6764 11.3708 14.2397 11.3708 14.8396C11.3705 15.3797 11.5035 15.9115 11.758 16.3878C12.0125 16.8641 12.3806 17.2703 12.8298 17.5702C12.3089 17.5536 11.7995 17.4129 11.344 17.1597V17.202C11.344 17.9594 11.606 18.6936 12.0856 19.2799C12.5652 19.8661 13.2329 20.2684 13.9754 20.4184C13.4922 20.5492 12.9856 20.5685 12.4939 20.4748C12.7034 21.1265 13.1114 21.6965 13.6609 22.1048C14.2104 22.5131 14.8738 22.7394 15.5583 22.7519C14.3963 23.6641 12.9614 24.1589 11.4842 24.1567C11.2225 24.1568 10.9611 24.1415 10.7012 24.1109C12.2006 25.075 13.9461 25.5867 15.7287 25.5847C21.7631 25.5847 25.062 20.5867 25.062 16.2521C25.062 16.1113 25.0585 15.969 25.0521 15.8282C25.6938 15.3642 26.2477 14.7895 26.6878 14.1312L26.6892 14.1291Z" fill="black"/>
</svg>
